<svg xmlns="http://www.w3.org/2000/svg" width="1200" height="630" viewBox="0 0 1200 630">
  <defs>
    <linearGradient id="bg" x1="0" y1="0" x2="1" y2="1"><stop stop-color="#292950"/><stop offset=".55" stop-color="#1c1c38"/><stop offset="1" stop-color="#111124"/></linearGradient>
    <radialGradient id="glow"><stop stop-color="#b92335" stop-opacity=".6"/><stop offset="1" stop-color="#b92335" stop-opacity="0"/></radialGradient>
    <linearGradient id="shell" x1="0" y1="0" x2="1" y2="1"><stop stop-color="#fff9df"/><stop offset="1" stop-color="#dac99d"/></linearGradient>
  </defs>
  <rect width="1200" height="630" fill="url(#bg)"/>
  <circle cx="965" cy="315" r="290" fill="url(#glow)"/>
  <text x="80" y="125" font-family="Arial, Helvetica, sans-serif" font-size="30" font-weight="700" letter-spacing="6" fill="#c8c8d5">ROBLOX GAME GUIDE</text>
  <text x="76" y="245" font-family="Arial, Helvetica, sans-serif" font-size="80" font-weight="800" fill="#ffffff">STEAL AN EGG</text>
  <text x="78" y="340" font-family="Arial, Helvetica, sans-serif" font-size="88" font-weight="800" fill="#d33a4d">WIKI</text>
  <text x="82" y="420" font-family="Arial, Helvetica, sans-serif" font-size="34" fill="#d7d7e2">Eggs · Pets · Speed · Codes · Guides</text>
  <rect x="80" y="485" width="540" height="4" rx="2" fill="#b92335"/>
  <text x="82" y="545" font-family="Arial, Helvetica, sans-serif" font-size="24" fill="#9999b1">Independent fan-made wiki</text>
  <ellipse cx="965" cy="500" rx="145" ry="30" fill="#080816" opacity=".55"/>
  <ellipse cx="965" cy="321" rx="128" ry="172" fill="url(#shell)" stroke="#c8b57d" stroke-width="9"/>
  <path d="M858 280c34-28 68-16 99 11 34 29 69 25 104-6" fill="none" stroke="#b92335" stroke-width="25" stroke-linecap="round"/>
  <path d="M861 378c34-23 66-16 97 8 32 25 66 23 101-4" fill="none" stroke="#b92335" stroke-width="19" stroke-linecap="round"/>
  <circle cx="897" cy="333" r="11" fill="#b92335"/><circle cx="1036" cy="333" r="11" fill="#b92335"/>
</svg>
